<svg width="146" height="25" viewBox="0 0 146 25" fill="none" xmlns="http://www.w3.org/2000/svg">
<g clip-path="url(#clip0_616_63924)">
<path opacity="0.8" d="M1.22791 19.4381L4.73807 22.0006L8.73036 19.4296C10.8239 18.0815 13.4042 18.0815 15.4978 19.4296L19.4901 22.0006L23.0002 19.4381V14.8144L15.3962 9.9179C13.3652 8.60985 10.8629 8.6107 8.83275 9.92046L1.22791 14.8246V19.4381Z" fill="#D1CED5"/>
<g filter="url(#filter0_d_616_63924)">
<path d="M1.00055 4.56291L4.51071 2.00049L8.50301 4.57143C10.5966 5.91953 13.1768 5.91953 15.2704 4.57143L19.2627 2.00049L22.7729 4.56291V9.18668L15.1688 14.0831C13.1379 15.3912 10.6355 15.3904 8.60539 14.0806L1.00055 9.17646V4.56291Z" fill="white"/>
</g>
</g>
<path d="M41.1905 20.28C39.5371 20.28 38.0971 19.94 36.8705 19.26C35.6438 18.5667 34.6905 17.5933 34.0105 16.34C33.3438 15.0733 33.0105 13.6 33.0105 11.92C33.0105 10.2133 33.3438 8.74 34.0105 7.5C34.6905 6.24667 35.6438 5.28 36.8705 4.6C38.0971 3.90667 39.5371 3.56 41.1905 3.56C42.4705 3.56 43.6105 3.78 44.6105 4.22C45.6105 4.64667 46.4305 5.26667 47.0705 6.08C47.7105 6.88 48.1305 7.85333 48.3305 9H45.4705C45.2838 8.04 44.8105 7.3 44.0505 6.78C43.3038 6.26 42.3505 6 41.1905 6C39.5105 6 38.1838 6.52667 37.2105 7.58C36.2505 8.63333 35.7705 10.08 35.7705 11.92C35.7705 13.76 36.2505 15.2067 37.2105 16.26C38.1838 17.3133 39.5105 17.84 41.1905 17.84C42.3505 17.84 43.3038 17.58 44.0505 17.06C44.8105 16.5267 45.2838 15.7867 45.4705 14.84H48.3305C48.1305 15.9733 47.7105 16.9467 47.0705 17.76C46.4305 18.5733 45.6105 19.2 44.6105 19.64C43.6105 20.0667 42.4705 20.28 41.1905 20.28ZM51.4814 24.8V22.62H54.2614L55.3614 19.98L50.0814 8H52.9214L56.7014 16.8H56.8014L60.4414 8H63.1614L58.0414 20L56.9414 22.6C56.6481 23.2933 56.3281 23.8333 55.9814 24.22C55.6481 24.6067 55.0947 24.8 54.3214 24.8H51.4814ZM73.1373 20.24C72.1507 20.24 71.304 20.06 70.5973 19.7C69.8907 19.3267 69.3373 18.7933 68.9373 18.1H68.0973V20H65.2573V17.26H66.6373V3.2H69.3573V9.8H69.4373C69.7973 9.14667 70.3107 8.64667 70.9773 8.3C71.6573 7.94 72.4507 7.76 73.3573 7.76C74.504 7.76 75.484 8.01333 76.2973 8.52C77.124 9.02667 77.7507 9.75333 78.1773 10.7C78.6173 11.6333 78.8373 12.7333 78.8373 14C78.8373 15.2667 78.6107 16.3667 78.1573 17.3C77.7173 18.2333 77.0707 18.96 76.2173 19.48C75.3773 19.9867 74.3507 20.24 73.1373 20.24ZM72.6573 17.9C73.7773 17.9 74.6307 17.5533 75.2173 16.86C75.8173 16.1667 76.1173 15.2133 76.1173 14C76.1173 12.7867 75.8173 11.8333 75.2173 11.14C74.6307 10.4467 73.7773 10.1 72.6573 10.1C71.6573 10.1 70.8573 10.3867 70.2573 10.96C69.6573 11.5333 69.3573 12.3067 69.3573 13.28V14.72C69.3573 15.6933 69.6573 16.4667 70.2573 17.04C70.8573 17.6133 71.6573 17.9 72.6573 17.9ZM87.9248 20.24C86.6582 20.24 85.5515 19.9867 84.6048 19.48C83.6715 18.96 82.9515 18.2267 82.4448 17.28C81.9382 16.3333 81.6848 15.2267 81.6848 13.96C81.6848 12.6933 81.9315 11.6 82.4248 10.68C82.9315 9.74667 83.6448 9.02667 84.5648 8.52C85.4848 8.01333 86.5715 7.76 87.8248 7.76C89.0248 7.76 90.0582 8 90.9248 8.48C91.7915 8.94667 92.4582 9.62 92.9248 10.5C93.4048 11.3667 93.6448 12.4 93.6448 13.6V14.6H84.2848C84.3915 15.6933 84.7582 16.54 85.3848 17.14C86.0115 17.7267 86.8515 18.02 87.9048 18.02C88.6782 18.02 89.3115 17.8733 89.8048 17.58C90.2982 17.2867 90.6382 16.8467 90.8248 16.26H93.5848C93.2915 17.5133 92.6448 18.4933 91.6448 19.2C90.6582 19.8933 89.4182 20.24 87.9248 20.24ZM84.3648 12.7H91.0448C90.9382 11.82 90.6048 11.1467 90.0448 10.68C89.4848 10.2 88.7448 9.96 87.8248 9.96C86.9048 9.96 86.1448 10.2 85.5448 10.68C84.9448 11.1467 84.5515 11.82 84.3648 12.7ZM98.0186 20V10.74H96.6386V8H99.4786V10.3H100.319C100.639 9.51333 101.145 8.91333 101.839 8.5C102.545 8.08667 103.352 7.88 104.259 7.88H105.259V10.22H104.139C103.005 10.22 102.145 10.5467 101.559 11.2C100.985 11.8533 100.699 12.7267 100.699 13.82V20H98.0186ZM113.287 20.24C112.061 20.24 110.987 19.9867 110.067 19.48C109.147 18.96 108.427 18.2333 107.907 17.3C107.401 16.3667 107.147 15.2667 107.147 14C107.147 12.7333 107.401 11.6333 107.907 10.7C108.414 9.76667 109.127 9.04667 110.047 8.54C110.967 8.02 112.047 7.76 113.287 7.76C114.807 7.76 116.067 8.14 117.067 8.9C118.067 9.66 118.714 10.7267 119.007 12.1H116.267C116.067 11.4467 115.714 10.9533 115.207 10.62C114.714 10.2867 114.074 10.12 113.287 10.12C112.234 10.12 111.401 10.46 110.787 11.14C110.174 11.82 109.867 12.7733 109.867 14C109.867 15.2267 110.174 16.18 110.787 16.86C111.401 17.54 112.234 17.88 113.287 17.88C114.941 17.88 115.954 17.1533 116.327 15.7H119.067C118.801 17.1533 118.167 18.2733 117.167 19.06C116.167 19.8467 114.874 20.24 113.287 20.24ZM126.995 20.22C125.395 20.22 124.148 19.7867 123.255 18.92C122.375 18.0533 121.935 16.8733 121.935 15.38V8H124.655V14.84C124.655 15.8267 124.908 16.5733 125.415 17.08C125.922 17.5733 126.675 17.82 127.675 17.82C128.702 17.82 129.495 17.5533 130.055 17.02C130.628 16.4867 130.915 15.74 130.915 14.78V8H133.635V17.26H135.015V20H132.195V18.1H131.355C130.902 18.7933 130.322 19.32 129.615 19.68C128.908 20.04 128.035 20.22 126.995 20.22ZM141.833 20C141.1 20 140.526 19.8133 140.113 19.44C139.713 19.0667 139.513 18.5 139.513 17.74V10.12H137.353V8H139.533V4.4H142.213V8H145.193V10.12H142.233V17.86H145.493V20H141.833Z" fill="url(#paint0_linear_616_63924)"/>
<defs>
<filter id="filter0_d_616_63924" x="-0.500693" y="0.99966" width="24.7748" height="16.0655" filterUnits="userSpaceOnUse" color-interpolation-filters="sRGB">
<feFlood flood-opacity="0" result="BackgroundImageFix"/>
<feColorMatrix in="SourceAlpha" type="matrix" values="0 0 0 0 0 0 0 0 0 0 0 0 0 0 0 0 0 0 127 0" result="hardAlpha"/>
<feOffset dy="0.500414"/>
<feGaussianBlur stdDeviation="0.750621"/>
<feComposite in2="hardAlpha" operator="out"/>
<feColorMatrix type="matrix" values="0 0 0 0 0 0 0 0 0 0.56335 0 0 0 0 0.804785 0 0 0 0.1 0"/>
<feBlend mode="normal" in2="BackgroundImageFix" result="effect1_dropShadow_616_63924"/>
<feBlend mode="normal" in="SourceGraphic" in2="effect1_dropShadow_616_63924" result="shape"/>
</filter>
<linearGradient id="paint0_linear_616_63924" x1="67.8472" y1="5.73069" x2="146" y2="15.1127" gradientUnits="userSpaceOnUse">
<stop stop-color="white"/>
<stop offset="1" stop-color="#9A94A2"/>
</linearGradient>
<clipPath id="clip0_616_63924">
<rect width="24" height="24" fill="white"/>
</clipPath>
</defs>
</svg>
