<svg width="24" height="24" viewBox="0 0 24 24" fill="none" xmlns="http://www.w3.org/2000/svg">
<path d="M13 12C13 12.1978 12.9414 12.3911 12.8315 12.5556C12.7216 12.72 12.5654 12.8482 12.3827 12.9239C12.2 12.9996 11.9989 13.0194 11.8049 12.9808C11.6109 12.9422 11.4327 12.847 11.2929 12.7071C11.153 12.5673 11.0578 12.3891 11.0192 12.1951C10.9806 12.0011 11.0004 11.8 11.0761 11.6173C11.1518 11.4346 11.28 11.2784 11.4444 11.1685C11.6089 11.0586 11.8022 11 12 11C12.2652 11 12.5196 11.1054 12.7071 11.2929C12.8946 11.4804 13 11.7348 13 12ZM7.75 11C7.55222 11 7.35888 11.0586 7.19443 11.1685C7.02998 11.2784 6.90181 11.4346 6.82612 11.6173C6.75043 11.8 6.73063 12.0011 6.76922 12.1951C6.8078 12.3891 6.90304 12.5673 7.04289 12.7071C7.18275 12.847 7.36093 12.9422 7.55491 12.9808C7.74889 13.0194 7.94996 12.9996 8.13268 12.9239C8.31541 12.8482 8.47159 12.72 8.58147 12.5556C8.69135 12.3911 8.75 12.1978 8.75 12C8.75 11.7348 8.64464 11.4804 8.45711 11.2929C8.26957 11.1054 8.01522 11 7.75 11ZM16.25 11C16.0522 11 15.8589 11.0586 15.6944 11.1685C15.53 11.2784 15.4018 11.4346 15.3261 11.6173C15.2504 11.8 15.2306 12.0011 15.2692 12.1951C15.3078 12.3891 15.403 12.5673 15.5429 12.7071C15.6827 12.847 15.8609 12.9422 16.0549 12.9808C16.2489 13.0194 16.45 12.9996 16.6327 12.9239C16.8154 12.8482 16.9716 12.72 17.0815 12.5556C17.1914 12.3911 17.25 12.1978 17.25 12C17.25 11.7348 17.1446 11.4804 16.9571 11.2929C16.7696 11.1054 16.5152 11 16.25 11Z" fill="#F6F6F6"/>
</svg>
