<svg width="18" height="18" viewBox="0 0 18 18" fill="none" xmlns="http://www.w3.org/2000/svg">
<path d="M15.75 15.469V8.71893C15.7505 8.57103 15.7217 8.4245 15.665 8.28785C15.6084 8.15121 15.5253 8.02719 15.4203 7.92299L9.79524 2.29799C9.58428 2.08718 9.29825 1.96875 9.00001 1.96875C8.70176 1.96875 8.41573 2.08718 8.20477 2.29799L2.57977 7.92299C2.4748 8.02719 2.39159 8.15121 2.33498 8.28785C2.27836 8.4245 2.24948 8.57103 2.25001 8.71893V15.469C2.25001 15.6181 2.30927 15.7612 2.41476 15.8667C2.52025 15.9722 2.66332 16.0315 2.81251 16.0315H15.1875C15.3367 16.0315 15.4798 15.9722 15.5852 15.8667C15.6907 15.7612 15.75 15.6181 15.75 15.469ZM13.8432 13.112C13.7731 13.1877 13.6813 13.24 13.5804 13.2615L11.8818 13.6362L11.0637 15.1719C11.0152 15.2629 10.9401 15.3367 10.8483 15.3836C10.7566 15.4305 10.6526 15.448 10.5506 15.434C10.4485 15.4199 10.3532 15.3749 10.2775 15.3049C10.2018 15.2351 10.1494 15.1436 10.1273 15.0429L9.75085 13.3428L8.21518 12.5247C8.12424 12.4764 8.05037 12.4011 8.00349 12.3094C7.95662 12.2176 7.93902 12.1137 7.95308 12.0116C7.96713 11.9096 8.01215 11.8142 8.08207 11.7386C8.15199 11.6629 8.24344 11.6105 8.34408 11.5884L10.0442 11.2119L10.8623 9.67625C10.9107 9.58532 10.9859 9.51144 11.0777 9.46456C11.1694 9.41769 11.2734 9.4001 11.3754 9.41415C11.4775 9.4282 11.5728 9.47322 11.6485 9.54314C11.7242 9.61306 11.7766 9.70451 11.7987 9.80515L12.1751 11.5053L13.7109 12.3234C13.8022 12.3716 13.8763 12.4471 13.923 12.5394C13.9697 12.6316 13.9866 12.736 13.9714 12.8383C13.9579 12.9405 13.9131 13.0362 13.8432 13.112Z" fill="white"/>
</svg>
