<svg width="18" height="19" viewBox="0 0 18 19" fill="none" xmlns="http://www.w3.org/2000/svg">
<path d="M9.79524 2.79799L15.4203 8.42299C15.5252 8.52719 15.6085 8.65121 15.6651 8.78785C15.7217 8.9245 15.7506 9.07103 15.75 9.21893L15.75 15.969C15.75 16.1181 15.6907 16.2612 15.5853 16.3667C15.4798 16.4722 15.3367 16.5315 15.1875 16.5315H2.81251C2.66332 16.5315 2.52025 16.4722 2.41476 16.3667C2.30927 16.2612 2.25001 16.1181 2.25001 15.969L2.25001 9.21893C2.24948 9.07103 2.27836 8.9245 2.33498 8.78785C2.39159 8.65121 2.4748 8.52719 2.57977 8.42299L8.20477 2.79799C8.41573 2.58718 8.70176 2.46875 9.00001 2.46875C9.29825 2.46875 9.58428 2.58718 9.79524 2.79799ZM11.3479 15.4065H14.625L14.625 9.21893L9.00001 3.59393L3.37501 9.21893L3.37501 15.4065L10.2399 15.4065L9.89368 13.8428L8.35801 13.0247C8.26707 12.9764 8.19318 12.9011 8.14632 12.8094C8.09945 12.7176 8.08185 12.6137 8.09591 12.5116C8.10996 12.4096 8.15498 12.3142 8.2249 12.2386C8.29482 12.1629 8.38627 12.1105 8.48691 12.0884L10.187 11.7119L11.0051 10.1763C11.0536 10.0853 11.1287 10.0114 11.2205 9.96456C11.3123 9.91769 11.4162 9.9001 11.5183 9.91415C11.6203 9.9282 11.7156 9.97322 11.7913 10.0431C11.867 10.1131 11.9194 10.2045 11.9415 10.3052L12.318 12.0053L13.8536 12.8234C13.945 12.8716 14.0192 12.9471 14.0659 13.0394C14.1126 13.1316 14.1294 13.236 14.1142 13.3383C14.1007 13.4405 14.056 13.5362 13.986 13.612C13.9159 13.6877 13.8241 13.74 13.7232 13.7615L12.0246 14.1362L11.3479 15.4065Z" fill="white"/>
</svg>
