<svg width="18" height="18" viewBox="0 0 18 18" fill="none" xmlns="http://www.w3.org/2000/svg">
<path d="M16.3125 13.8438V5.90625C16.3125 5.60788 16.1939 5.32173 15.983 5.11075C15.772 4.89978 15.4858 4.78125 15.1875 4.78125H9.18773L7.23727 3.31875C7.04225 3.17324 6.80559 3.09435 6.56227 3.09375H2.8125C2.51413 3.09375 2.22798 3.21228 2.017 3.42325C1.80603 3.63423 1.6875 3.92038 1.6875 4.21875V13.7812C1.6875 14.0796 1.80603 14.3658 2.017 14.5767C2.22798 14.7877 2.51413 14.9062 2.8125 14.9062H15.2501C15.5318 14.9059 15.8017 14.7939 16.0009 14.5946C16.2001 14.3955 16.3122 14.1255 16.3125 13.8438ZM14.7178 11.596C14.7051 11.6931 14.6626 11.7839 14.5961 11.8559C14.5296 11.9278 14.4425 11.9774 14.3467 11.9978L12.7341 12.3536L11.9575 13.8114C11.9115 13.8978 11.8401 13.9679 11.753 14.0124C11.6659 14.0569 11.5673 14.0736 11.4704 14.0603C11.3734 14.047 11.283 14.0042 11.2111 13.9379C11.1393 13.8715 11.0895 13.7846 11.0686 13.6891L10.7112 12.0751L9.25329 11.2984C9.16696 11.2525 9.09682 11.1811 9.05232 11.094C9.00783 11.0069 8.99112 10.9082 9.00447 10.8113C9.01781 10.7144 9.06055 10.6239 9.12692 10.5521C9.1933 10.4802 9.28013 10.4305 9.37566 10.4095L10.9897 10.0521L11.7663 8.59426C11.8123 8.50792 11.8837 8.43778 11.9708 8.39329C12.0579 8.34879 12.1565 8.33209 12.2534 8.34543C12.3503 8.35877 12.4408 8.40151 12.5127 8.46789C12.5845 8.53426 12.6343 8.62108 12.6552 8.71662L13.0127 10.3306L14.4705 11.1073C14.5573 11.1531 14.6277 11.2247 14.6719 11.3123C14.7162 11.3998 14.7323 11.499 14.7178 11.596Z" fill="white"/>
</svg>
