<svg width="18" height="19" viewBox="0 0 18 19" fill="none" xmlns="http://www.w3.org/2000/svg">
<path d="M9.18773 5.28125L15.1875 5.28125C15.4858 5.28125 15.772 5.39978 15.983 5.61075C16.1939 5.82173 16.3125 6.10788 16.3125 6.40625V14.3438C16.3122 14.6255 16.2001 14.8955 16.0009 15.0946C15.8017 15.2939 15.5318 15.4059 15.2501 15.4062L2.8125 15.4062C2.51413 15.4062 2.22798 15.2877 2.017 15.0767C1.80603 14.8658 1.6875 14.5796 1.6875 14.2812L1.6875 4.71875C1.6875 4.42038 1.80603 4.13423 2.017 3.92325C2.22798 3.71228 2.51413 3.59375 2.8125 3.59375L6.56227 3.59375C6.80559 3.59435 7.04225 3.67324 7.23727 3.81875L9.18773 5.28125ZM11.9736 14.2812H15.1875L15.1875 6.40625L9 6.40625C8.87829 6.40625 8.75987 6.36677 8.6625 6.29375L6.56227 4.71875L2.8125 4.71875L2.8125 14.2812L11.0989 14.2812C11.0857 14.2518 11.0755 14.221 11.0686 14.1891L10.7112 12.5751L9.25329 11.7984C9.16696 11.7525 9.09682 11.6811 9.05232 11.594C9.00783 11.5069 8.99112 11.4082 9.00447 11.3113C9.01781 11.2144 9.06055 11.1239 9.12692 11.0521C9.1933 10.9802 9.28013 10.9305 9.37566 10.9095L10.9897 10.5521L11.7663 9.09426C11.8123 9.00792 11.8837 8.93778 11.9708 8.89329C12.0579 8.84879 12.1565 8.83209 12.2534 8.84543C12.3503 8.85877 12.4408 8.90151 12.5127 8.96789C12.5845 9.03426 12.6343 9.12108 12.6552 9.21662L13.0127 10.8306L14.4705 11.6073C14.5573 11.6531 14.6277 11.7247 14.6719 11.8123C14.7162 11.8998 14.7323 11.999 14.7178 12.096C14.7051 12.1931 14.6626 12.2839 14.5961 12.3559C14.5296 12.4278 14.4425 12.4774 14.3467 12.4978L12.7341 12.8536L11.9736 14.2812Z" fill="white"/>
</svg>
