<svg width="18" height="18" viewBox="0 0 18 18" fill="none" xmlns="http://www.w3.org/2000/svg">
<path d="M3.763 2.8125H7.138C7.43637 2.8125 7.72252 2.93103 7.9335 3.142C8.14447 3.35298 8.263 3.63913 8.263 3.9375V7.3125C8.263 7.61087 8.14447 7.89702 7.9335 8.108C7.72252 8.31897 7.43637 8.4375 7.138 8.4375H3.763C3.46463 8.4375 3.17848 8.31897 2.96751 8.108C2.75653 7.89702 2.638 7.61087 2.638 7.3125V3.9375C2.638 3.63913 2.75653 3.35298 2.96751 3.142C3.17848 2.93103 3.46463 2.8125 3.763 2.8125ZM3.763 9.5625H7.138C7.43637 9.5625 7.72252 9.68103 7.9335 9.892C8.14447 10.103 8.263 10.3891 8.263 10.6875V14.0625C8.263 14.3608 8.14447 14.647 7.9335 14.858C7.72252 15.0689 7.43637 15.1875 7.138 15.1875H3.763C3.46463 15.1875 3.17848 15.0689 2.96751 14.858C2.75653 14.647 2.638 14.3608 2.638 14.0625V10.6875C2.638 10.3891 2.75653 10.103 2.96751 9.892C3.17848 9.68103 3.46463 9.5625 3.763 9.5625ZM10.513 2.8125H13.888C14.1863 2.8125 14.4725 2.93103 14.6835 3.142C14.8945 3.35298 15.013 3.63913 15.013 3.9375V7.3125C15.013 7.61087 14.8945 7.89702 14.6835 8.108C14.4725 8.31897 14.1863 8.4375 13.888 8.4375H10.513C10.2146 8.4375 9.92848 8.31897 9.7175 8.108C9.50653 7.89702 9.388 7.61087 9.388 7.3125V3.9375C9.388 3.63913 9.50653 3.35298 9.7175 3.142C9.92848 2.93103 10.2146 2.8125 10.513 2.8125ZM15.3568 12.7188C15.344 12.8159 15.3014 12.9067 15.235 12.9786C15.1685 13.0506 15.0814 13.1002 14.9855 13.1206L13.373 13.4763L12.5964 14.9343C12.5504 15.0206 12.479 15.0906 12.3919 15.1352C12.3048 15.1796 12.2061 15.1964 12.1092 15.183C12.0123 15.1697 11.9218 15.127 11.85 15.0606C11.7782 14.9942 11.7284 14.9074 11.7074 14.8119L11.35 13.1978L9.89217 12.4212C9.80585 12.3752 9.7357 12.3038 9.69121 12.2167C9.64672 12.1296 9.63001 12.031 9.64335 11.9341C9.65668 11.8372 9.69943 11.7467 9.76581 11.6748C9.83218 11.603 9.919 11.5532 10.0145 11.5323L11.6285 11.1749L12.4052 9.71701C12.4512 9.63069 12.5225 9.56054 12.6097 9.51605C12.6968 9.47156 12.7954 9.45485 12.8923 9.46819C12.9892 9.48153 13.0797 9.52427 13.1515 9.59065C13.2234 9.65702 13.2732 9.74384 13.2941 9.83938L13.6515 11.4534L15.1094 12.23C15.1961 12.2759 15.2666 12.3475 15.3109 12.435C15.3551 12.5226 15.3712 12.6217 15.3568 12.7188Z" fill="white"/>
</svg>
