<svg width="18" height="19" viewBox="0 0 18 19" fill="none" xmlns="http://www.w3.org/2000/svg">
<path d="M3.43122 3.81885C3.36909 3.81885 3.31872 3.86921 3.31872 3.93135V7.64385C3.31872 7.70598 3.36909 7.75634 3.43122 7.75634H7.14372C7.20586 7.75634 7.25622 7.70598 7.25622 7.64385V3.93135C7.25622 3.86921 7.20586 3.81885 7.14372 3.81885H3.43122ZM2.19373 3.93135C2.19373 3.2479 2.74778 2.69385 3.43122 2.69385H7.14372C7.82717 2.69385 8.38122 3.2479 8.38122 3.93135V7.64385C8.38122 8.32731 7.82717 8.88134 7.14372 8.88134H3.43122C2.74778 8.88134 2.19373 8.32731 2.19373 7.64385V3.93135ZM3.43122 11.2438C3.36909 11.2438 3.31872 11.2942 3.31872 11.3563V15.0688C3.31872 15.1309 3.36909 15.1813 3.43122 15.1813H7.14372C7.20586 15.1813 7.25622 15.1309 7.25622 15.0688V11.3563C7.25622 11.2942 7.20586 11.2438 7.14372 11.2438H3.43122ZM2.19373 11.3563C2.19373 10.6729 2.74778 10.1188 3.43122 10.1188H7.14372C7.82717 10.1188 8.38122 10.6729 8.38122 11.3563V15.0688C8.38122 15.7523 7.82717 16.3063 7.14372 16.3063H3.43122C2.74778 16.3063 2.19373 15.7523 2.19373 15.0688V11.3563ZM14.5688 3.81885C14.6309 3.81885 14.6813 3.86921 14.6813 3.93135V7.64385C14.6813 7.70598 14.6309 7.75634 14.5688 7.75634H10.8563C10.7941 7.75634 10.7438 7.70598 10.7438 7.64385V3.93135C10.7438 3.86921 10.7941 3.81885 10.8563 3.81885H14.5688ZM10.8563 2.69385C10.1728 2.69385 9.61877 3.2479 9.61877 3.93135V7.64385C9.61877 8.32731 10.1728 8.88134 10.8563 8.88134H14.5688C15.2522 8.88134 15.8063 8.32731 15.8063 7.64385V3.93135C15.8063 3.2479 15.2522 2.69385 14.5688 2.69385H10.8563ZM15.8004 13.4775C15.7859 13.5888 15.7377 13.6927 15.6622 13.7752C15.5867 13.8577 15.4878 13.9145 15.379 13.9379L13.5484 14.3456L12.6667 16.0161C12.6145 16.115 12.5335 16.1954 12.4347 16.2464C12.3358 16.2973 12.2238 16.3165 12.1138 16.3012C12.0038 16.286 11.9011 16.2369 11.8195 16.1609C11.7379 16.0848 11.6814 15.9854 11.6577 15.8759L11.2519 14.0264L9.59693 13.1365C9.49893 13.0838 9.41931 13.002 9.36879 12.9022C9.31828 12.8024 9.29931 12.6893 9.31447 12.5783C9.32961 12.4673 9.37813 12.3636 9.45348 12.2813C9.52884 12.1989 9.62739 12.1419 9.73585 12.1179L11.5681 11.7084L12.4497 10.0378C12.5019 9.9389 12.5829 9.85853 12.6818 9.80755C12.7807 9.75656 12.8928 9.73741 13.0028 9.7527C13.1128 9.76799 13.2155 9.81696 13.2971 9.89302C13.3786 9.96909 13.4351 10.0686 13.4589 10.178L13.8646 12.0275L15.5196 12.9174C15.6181 12.9699 15.6979 13.052 15.7483 13.1524C15.7986 13.2526 15.8169 13.3663 15.8004 13.4775Z" fill="white"/>
</svg>
